<svg xmlns="http://www.w3.org/2000/svg" viewBox="0 0 500 500" width="100%" height="100%">
  <defs>
    <filter id="glow" x="-20%" y="-20%" width="140%" height="140%">
      <feGaussianBlur stdDeviation="5" result="blur" />
      <feComposite in="SourceGraphic" in2="blur" operator="over" />
    </filter>
    
    <filter id="drop-shadow" x="-10%" y="-10%" width="120%" height="120%">
      <feDropShadow dx="0" dy="8" stdDeviation="6" flood-color="#000" flood-opacity="0.15" />
    </filter>

    <style>
      .logo-text {
        font-family: 'Fredoka One', 'Arial Rounded MT Bold', 'Comic Sans MS', sans-serif;
        font-weight: 900;
        font-size: 65px;
        fill: #FF9F43;
      }
      .binary-dirt {
        font-family: 'Courier New', monospace;
        font-weight: bold;
        font-size: 14px;
        fill: #747D8C;
        opacity: 0.6;
      }
    </style>
  </defs>

  <circle cx="250" cy="220" r="150" fill="#F1F2F6" stroke="#2ED573" stroke-width="6" filter="url(#drop-shadow)" />

  <text x="130" y="220" class="binary-dirt" transform="rotate(-15 130 220)">01010</text>
  <text x="110" y="270" class="binary-dirt" transform="rotate(-30 110 270)">1011</text>
  <text x="340" y="190" class="binary-dirt" transform="rotate(15 340 190)">1101</text>
  <text x="350" y="240" class="binary-dirt" transform="rotate(25 350 240)">0010</text>
  <text x="330" y="310" class="binary-dirt" transform="rotate(45 330 310)">10101</text>
  <text x="150" y="320" class="binary-dirt" transform="rotate(-40 150 320)">0110</text>

  <ellipse cx="250" cy="330" rx="110" ry="35" fill="#2F3542" />

  <path d="M 180 330 C 180 230, 320 230, 320 330 Z" fill="#FF9F43" />

  <g transform="rotate(-20 200 160)">
    <ellipse cx="200" cy="160" rx="20" ry="65" fill="#FF9F43" stroke="#E17055" stroke-width="2"/>
    <ellipse cx="200" cy="165" rx="10" ry="45" fill="#FFD1D1" />
  </g>

  <g transform="rotate(25 300 160)">
    <ellipse cx="300" cy="160" rx="20" ry="65" fill="#FF9F43" stroke="#E17055" stroke-width="2"/>
    <ellipse cx="300" cy="165" rx="10" ry="45" fill="#FFD1D1" />
  </g>

  <ellipse cx="250" cy="245" rx="70" ry="60" fill="#FF9F43" />

  <ellipse cx="230" cy="265" rx="25" ry="20" fill="#FFFFFF" />
  <ellipse cx="270" cy="265" rx="25" ry="20" fill="#FFFFFF" />
  
  <path d="M 240 255 L 260 255 L 250 265 Z" fill="#FF4757" />

  <ellipse cx="220" cy="235" rx="8" ry="14" fill="#2F3542" />
  <circle cx="218" cy="230" r="3" fill="#FFFFFF" />
  
  <ellipse cx="280" cy="235" rx="8" ry="14" fill="#2F3542" />
  <circle cx="278" cy="230" r="3" fill="#FFFFFF" />

  <ellipse cx="185" cy="335" rx="22" ry="16" fill="#FF9F43" stroke="#E17055" stroke-width="1.5"/>
  <path d="M 175 345 L 175 330 M 195 345 L 195 330" stroke="#E17055" stroke-width="2" stroke-linecap="round"/>

  <g filter="url(#glow)">
    <path d="M 315 285 L 340 235 L 325 185 M 340 235 L 380 200" stroke="#1E90FF" stroke-width="18" stroke-linecap="round" stroke-linejoin="round" fill="none" />
    <path d="M 315 285 L 340 235 L 325 185 M 340 235 L 380 200" stroke="#70A1FF" stroke-width="8" stroke-linecap="round" stroke-linejoin="round" fill="none" />
    <path d="M 315 285 L 340 235 L 325 185 M 340 235 L 380 200" stroke="#FFFFFF" stroke-width="3" stroke-linecap="round" stroke-linejoin="round" fill="none" />
    
    <path d="M 380 160 L 383 168 L 391 171 L 383 174 L 380 182 L 377 174 L 369 171 L 377 168 Z" fill="#70A1FF" />
    <circle cx="310" cy="180" r="4" fill="#70A1FF" />
    <circle cx="395" cy="220" r="3" fill="#70A1FF" />
  </g>

  <ellipse cx="310" cy="285" rx="22" ry="18" fill="#FF9F43" stroke="#E17055" stroke-width="1.5" transform="rotate(-15 310 285)" />
  <path d="M 305 295 L 315 275 M 320 295 L 330 275" stroke="#E17055" stroke-width="2" stroke-linecap="round"/>

  <text x="250" y="450" class="logo-text" text-anchor="middle">Nabbit</text>
  <text x="250" y="475" font-family="sans-serif" font-weight="bold" font-size="14" fill="#A4B0BE" letter-spacing="3" text-anchor="middle">NANOBODY PIPELINE</text>
</svg>
